HIERARCHY
ROOT Hips
{
	OFFSET 55.310501 45.591206 43.872097
	CHANNELS 6 Xposition Yposition Zposition Zrotation Xrotation Yrotation
	JOINT Chest
	{
		OFFSET -0.153500 1.163101 7.852402
		CHANNELS 6 Xposition Yposition Zposition Zrotation Xrotation Yrotation
		JOINT Chest2
		{
			OFFSET 0.000000 0.000000 3.343300
			CHANNELS 6 Xposition Yposition Zposition Zrotation Xrotation Yrotation
			JOINT Neck
			{
				OFFSET 0.000000 0.000000 7.785500
				CHANNELS 6 Xposition Yposition Zposition Zrotation Xrotation Yrotation
				JOINT Head
				{
					OFFSET 0.000000 0.000000 2.173901
					CHANNELS 6 Xposition Yposition Zposition Zrotation Xrotation Yrotation
					End Site
					{
						OFFSET 0.000000 0.000000 10.528198
					}
				}
			}
			JOINT LeftCollar
			{
				OFFSET 2.676300 -1.652401 4.938301
				CHANNELS 6 Xposition Yposition Zposition Zrotation Xrotation Yrotation
				JOINT LeftShoulder
				{
					OFFSET 4.299000 0.000000 0.000000
					CHANNELS 6 Xposition Yposition Zposition Zrotation Xrotation Yrotation
					JOINT LeftElbow
					{
						OFFSET 0.000000 0.000000 -10.245102
						CHANNELS 6 Xposition Yposition Zposition Zrotation Xrotation Yrotation
						JOINT LeftWrist
						{
							OFFSET 0.000000 0.000000 -12.703300
							CHANNELS 6 Xposition Yposition Zposition Zrotation Xrotation Yrotation
							End Site
							{
								OFFSET 0.000000 0.000000 -2.173901
							}
						}
					}
				}
			}
			JOINT RightCollar
			{
				OFFSET -2.534599 -1.686401 5.195000
				CHANNELS 6 Xposition Yposition Zposition Zrotation Xrotation Yrotation
				JOINT RightShoulder
				{
					OFFSET -4.144100 0.000000 0.000000
					CHANNELS 6 Xposition Yposition Zposition Zrotation Xrotation Yrotation
					JOINT RightElbow
					{
						OFFSET 0.000000 0.000000 -10.116501
						CHANNELS 6 Xposition Yposition Zposition Zrotation Xrotation Yrotation
						JOINT RightWrist
						{
							OFFSET 0.000000 0.000000 -12.937801
							CHANNELS 6 Xposition Yposition Zposition Zrotation Xrotation Yrotation
							End Site
							{
								OFFSET 0.000000 0.000000 -2.173901
							}
						}
					}
				}
			}
		}
	}
	JOINT LeftHip
	{
		OFFSET 2.175598 0.064499 -2.662899
		CHANNELS 6 Xposition Yposition Zposition Zrotation Xrotation Yrotation
		JOINT LeftKnee
		{
			OFFSET 0.000000 -0.000004 -18.585800
			CHANNELS 6 Xposition Yposition Zposition Zrotation Xrotation Yrotation
			JOINT LeftAnkle
			{
				OFFSET 0.000000 0.000000 -18.979500
				CHANNELS 6 Xposition Yposition Zposition Zrotation Xrotation Yrotation
				End Site
				{
					OFFSET 0.000000 -9.264000 0.000000
				}
			}
		}
	}
	JOINT RightHip
	{
		OFFSET -2.092400 -0.058102 -2.581200
		CHANNELS 6 Xposition Yposition Zposition Zrotation Xrotation Yrotation
		JOINT RightKnee
		{
			OFFSET 0.000000 -0.000004 -18.665001
			CHANNELS 6 Xposition Yposition Zposition Zrotation Xrotation Yrotation
			JOINT RightAnkle
			{
				OFFSET 0.000000 0.000000 -18.566601
				CHANNELS 6 Xposition Yposition Zposition Zrotation Xrotation Yrotation
				End Site
				{
					OFFSET 0.000000 -8.497601 0.000000
				}
			}
		}
	}
}
MOTION
Frames: 7
Frame Time: 0.041667
49.698204 41.753101 39.079193 1835.236422 4.789054 -5.085984 -0.153497 1.163103 7.852407 0.194444 17.820245 -1.911771 0.000008 0.000007 3.343302 0.266980 -8.906191 0.044296 0.000005 0.000001 7.785506 2.160567 -1.078103 1.968153 0.000001 0.000002 2.173896 2.489413 -4.330488 3.546787 2.676301 -1.652393 4.938303 4.163919 -0.832165 7.266396 4.299004 0.000000 -0.000008 -36.735909 24.106162 -70.169634 0.000001 0.000005 -10.245102 -51.326570 721.783628 2.197874 -0.000005 -0.000004 -12.703300 1315.852445 -193.194250 523.600553 -2.534594 -1.686391 5.195001 2.905345 3.216103 -8.187493 -4.144097 0.000008 -0.000001 -0.257048 43.109716 69.960774 0.000005 0.000002 -10.116504 -8.556960 1.132070 0.796551 0.000009 -0.000004 -12.937801 -409.851730 -351.659584 29.086818 2.175608 0.064502 -2.662889 -654.108311 -37.983768 36.835562 0.000000 -0.000001 -18.585798 83.639293 -227.429153 -123.479247 -0.000006 -0.000010 -18.979515 759.698063 5.236536 -126.849672 -2.092398 -0.058095 -2.581198 994.239601 -39.937216 -31.561662 0.000004 -0.000003 -18.665014 -1464.150168 52.208733 -285.275309 0.000006 -0.000007 -18.566605 736.897526 11.700595 6.588203
50.247398 41.494797 39.341694 1837.461206 4.217854 -5.434250 -0.153502 1.163108 7.852407 1.745549 17.651844 -2.111818 0.000003 0.000009 3.343294 0.007666 -8.850601 0.037644 0.000009 0.000004 7.785502 1.090778 -0.938042 2.376442 0.000003 -0.000002 2.173904 2.162866 -4.044226 3.166207 2.676308 -1.652397 4.938299 4.499000 -1.096743 7.652562 4.298992 0.000000 -0.000011 -38.715660 20.383859 -71.138107 0.000006 0.000005 -10.245097 -51.891860 721.715326 2.081749 0.000001 0.000000 -12.703308 1315.446022 -193.442172 523.968728 -2.534590 -1.686395 5.194998 3.508221 3.164305 -8.083174 -4.144097 0.000001 0.000000 2.777509 45.646048 66.350473 0.000002 0.000001 -10.116508 -7.896660 1.007498 0.420546 0.000010 -0.000002 -12.937804 -414.274688 -350.847174 29.791697 2.175597 0.064497 -2.662899 -658.476463 -37.228465 34.740203 -0.000002 0.000004 -18.585800 85.820582 -227.161942 -124.589658 -0.000006 -0.000000 -18.979517 759.369176 4.921727 -126.432757 -2.092398 -0.058097 -2.581202 994.237525 -39.821133 -32.439669 -0.000003 -0.000008 -18.665003 -1463.007833 54.643125 -286.521409 0.000000 -0.000003 -18.566603 736.223249 10.637501 9.176302
50.760902 41.250301 39.602993 1839.532775 3.609746 -5.703546 -0.153515 1.163110 7.852401 3.300142 17.560206 -2.373465 -0.000004 0.000009 3.343306 -0.288345 -8.790275 0.031241 0.000004 -0.000001 7.785503 0.020508 -0.760312 2.817625 0.000001 0.000007 2.173902 1.931481 -3.763579 2.780926 2.676295 -1.652404 4.938301 4.695581 -1.193894 8.026856 4.299015 0.000006 0.000000 -40.924885 16.844660 -71.844957 -0.000004 0.000008 -10.245106 -51.091826 721.435234 2.009863 -0.000005 -0.000001 -12.703308 1314.493839 -193.570635 523.235002 -2.534585 -1.686399 5.195006 4.276042 3.274459 -8.014932 -4.144110 -0.000002 0.000008 6.575246 47.668249 62.447409 0.000003 0.000006 -10.116502 -7.288116 0.945103 -0.061988 -0.000001 0.000002 -12.937800 -418.508531 -349.897723 29.095329 2.175590 0.064505 -2.662901 -662.350382 -36.351076 32.740679 -0.000002 0.000006 -18.585800 88.020778 -226.843368 -125.805459 -0.000003 0.000002 -18.979515 758.838607 4.737112 -126.039858 -2.092411 -0.058092 -2.581203 994.117751 -39.673755 -33.344116 0.000002 -0.000011 -18.665009 -1462.121547 55.270748 -288.132951 0.000008 -0.000007 -18.566605 737.370666 10.187021 12.162496
51.240307 41.009502 39.861691 1841.579209 2.983605 -5.861030 -0.153498 1.163106 7.852408 4.697964 17.426510 -2.731891 -0.000005 -0.000003 3.343304 -0.634540 -8.684637 0.035369 0.000005 -0.000000 7.785497 -1.027840 -0.514666 3.200484 0.000000 0.000009 2.173903 1.791803 -3.516098 2.499194 2.676295 -1.652405 4.938296 5.471980 -1.188171 8.527879 4.298996 0.000000 -0.000006 -43.927224 13.869593 -72.325481 -0.000003 -0.000001 -10.245103 -48.856924 721.145634 1.912658 -0.000000 -0.000006 -12.703306 1312.174416 -193.823570 522.994360 -2.534600 -1.686406 5.194994 5.293876 3.566459 -8.046535 -4.144104 0.000004 0.000002 10.706016 49.043063 58.529284 0.000003 0.000006 -10.116491 -6.754357 0.660052 -0.449360 0.000004 0.000002 -12.937803 -422.851711 -347.733591 30.679386 2.175596 0.064493 -2.662899 -665.617016 -35.356543 30.917466 -0.000004 0.000001 -18.585804 89.933497 -226.414952 -126.992573 -0.000008 -0.000001 -18.979519 758.167609 4.668575 -125.696873 -2.092398 -0.058100 -2.581198 994.264408 -39.589610 -33.912203 -0.000008 -0.000011 -18.665005 -1461.011341 55.917065 -290.594005 0.000010 -0.000007 -18.566597 738.571140 9.986643 14.953159
51.681110 40.768909 40.122696 1843.793065 2.320848 -5.921305 -0.153505 1.163094 7.852409 5.784045 17.290054 -3.197789 0.000006 -0.000006 3.343298 -0.994863 -8.578210 0.028421 0.000000 0.000004 7.785503 -1.991749 -0.213782 3.702907 -0.000004 0.000004 2.173901 1.569404 -3.331198 2.099657 2.676295 -1.652397 4.938299 5.055373 -0.824064 8.920543 4.298996 0.000002 -0.000006 -46.089939 10.959906 -72.723299 -0.000005 0.000001 -10.245104 -46.316766 720.855105 1.852451 -0.000004 0.000001 -12.703302 1309.763304 -194.075345 522.873821 -2.534604 -1.686396 5.195005 6.365676 3.990734 -8.083354 -4.144098 0.000013 0.000000 15.166312 49.592491 54.904752 0.000003 -0.000002 -10.116502 -6.288380 0.403580 -0.952212 0.000006 0.000000 -12.937796 -426.364723 -345.367996 30.782194 2.175593 0.064495 -2.662895 -668.815894 -34.368545 29.086265 -0.000005 -0.000005 -18.585796 91.819462 -225.898275 -128.188703 -0.000006 0.000003 -18.979515 757.387492 4.702420 -125.375308 -2.092407 -0.058102 -2.581192 994.245612 -39.456572 -34.283281 0.000005 -0.000010 -18.665005 -1459.421382 56.542358 -293.884462 0.000010 -0.000004 -18.566603 739.898765 10.026701 17.249042
52.091602 40.527504 40.384495 1845.882338 1.642072 -5.929011 -0.153498 1.163105 7.852408 6.733650 17.182294 -3.607484 -0.000002 0.000002 3.343303 -1.302358 -8.470330 0.022723 0.000003 -0.000003 7.785498 -2.886859 0.106188 4.139948 0.000005 0.000001 2.173902 1.363988 -3.189773 1.691601 2.676299 -1.652401 4.938300 4.552623 -0.405296 9.276379 4.299007 0.000000 -0.000008 -48.316772 8.500162 -73.015310 0.000003 0.000001 -10.245106 -44.218604 720.492395 1.938685 -0.000006 0.000001 -12.703291 1307.822875 -194.228628 522.894803 -2.534597 -1.686401 5.194993 7.451085 4.479180 -8.223916 -4.144110 -0.000003 -0.000002 19.645122 49.337998 51.743512 0.000005 -0.000005 -10.116494 -5.524530 0.224310 -1.360928 0.000005 -0.000008 -12.937810 -428.265811 -340.256611 29.886705 2.175601 0.064503 -2.662895 -671.613867 -33.303634 27.318088 0.000006 -0.000011 -18.585800 93.654871 -225.375069 -129.432276 -0.000000 -0.000009 -18.979517 756.482027 4.818785 -125.069151 -2.092398 -0.058095 -2.581196 994.679247 -39.438240 -34.209600 0.000006 -0.000008 -18.665005 -1457.447512 57.200891 -298.056205 0.000005 0.000006 -18.566605 741.255296 10.355923 18.702827
52.472004 40.287212 40.648392 1847.895550 0.943093 -5.830075 -0.153501 1.163104 7.852403 7.440633 17.132508 -4.034499 0.000005 0.000004 3.343302 -1.510571 -8.397957 0.019416 0.000002 0.000005 7.785505 -3.632944 0.394784 4.475516 0.000003 0.000005 2.173904 1.091068 -3.070084 1.349192 2.676294 -1.652391 4.938302 4.034552 0.007235 9.807843 4.299009 -0.000004 -0.000010 -50.514768 6.377941 -73.263607 0.000001 0.000012 -10.245099 -42.915134 720.083622 1.926279 -0.000005 -0.000009 -12.703305 1306.658355 -194.257861 523.216423 -2.534600 -1.686397 5.195001 8.618696 5.095713 -8.517469 -4.144114 0.000003 0.000000 23.550991 48.492089 49.657237 0.000002 0.000005 -10.116497 -4.856742 -0.068728 -1.778495 -0.000006 0.000001 -12.937791 -433.813782 -176.252663 114.083652 2.175593 0.064501 -2.662893 -674.343757 -32.261675 25.499458 -0.000010 -0.000008 -18.585802 95.700021 -224.877339 -130.860332 -0.000003 0.000002 -18.979523 755.501267 4.726950 -125.426425 -2.092403 -0.058102 -2.581192 995.428491 -39.416800 -33.741032 0.000001 -0.000002 -18.665012 -1454.948319 57.689376 -303.152619 0.000008 -0.000001 -18.566607 742.759085 10.777197 19.227133
